<svg id="positiv" xmlns="http://www.w3.org/2000/svg" viewBox="0 0 290.31 81.2"><defs><style>.cls-1{fill:#fff;}</style></defs><title>trippus_logotyp_negativ</title><path class="cls-1" d="M31.48,57a6,6,0,0,1-2.17,4.74,7.37,7.37,0,0,1-4.93,1.68H23a15.21,15.21,0,0,1-8.19-2.33,16.18,16.18,0,0,1-5.74-6.28,18.66,18.66,0,0,1-2-8.72V30H6.19a6.29,6.29,0,0,1-4.36-1.61A5.56,5.56,0,0,1,0,24.23a5.78,5.78,0,0,1,1.83-4.37,6.33,6.33,0,0,1,4.36-1.6h.86V10a6.26,6.26,0,0,1,6.42-6.42A6.27,6.27,0,0,1,19.89,10v8.28h3.82a6.32,6.32,0,0,1,4.35,1.6,5.8,5.8,0,0,1,1.84,4.37,5.57,5.57,0,0,1-1.84,4.2A6.28,6.28,0,0,1,23.71,30H19.89V46.13A5.19,5.19,0,0,0,21,49.55,2.42,2.42,0,0,0,23,50.62H25.6a5.6,5.6,0,0,1,4.26,1.94h0A6.56,6.56,0,0,1,31.48,57Z"/><path class="cls-1" d="M87.42,7.63A7.45,7.45,0,0,1,85.17,13,7.57,7.57,0,0,1,74.4,13a7.57,7.57,0,0,1,0-10.77,7.59,7.59,0,0,1,10.77,0A7.51,7.51,0,0,1,87.42,7.63Z"/><path class="cls-1" d="M86.29,23.24V57a6.51,6.51,0,0,1-1.8,4.59A6.52,6.52,0,0,1,73.29,57V23.24a6.35,6.35,0,0,1,1.9-4.69,6.49,6.49,0,0,1,11.1,4.69Z"/><path class="cls-1" d="M139.37,28.12a22.66,22.66,0,0,0-8.52-8.56,23.75,23.75,0,0,0-11.95-3.12A23.33,23.33,0,0,0,107,19.57a23,23,0,0,0-8.45,8.54,23.73,23.73,0,0,0-3.12,12V74.71a6.33,6.33,0,0,0,1.9,4.69,6.48,6.48,0,0,0,11.09-4.69V60.17a20.61,20.61,0,0,0,2.68,1.52,21.92,21.92,0,0,0,20.59-1,21.93,21.93,0,0,0,7.92-8.55,25.3,25.3,0,0,0,2.84-12A24.06,24.06,0,0,0,139.37,28.12Zm-29.83,6A10.52,10.52,0,0,1,113.39,30a11,11,0,0,1,11,0,10.7,10.7,0,0,1,3.9,4.13,12.17,12.17,0,0,1,1.46,6,12,12,0,0,1-1.45,6,10.78,10.78,0,0,1-3.91,4.1,10.59,10.59,0,0,1-14.85-4.08,12.13,12.13,0,0,1-1.43-6A12.5,12.5,0,0,1,109.54,34.11Z"/><path class="cls-1" d="M192.65,28.12a22.66,22.66,0,0,0-8.52-8.56,23.76,23.76,0,0,0-12-3.12,23.13,23.13,0,0,0-20.36,11.67,23.92,23.92,0,0,0-3.11,12V74.71a6.37,6.37,0,0,0,1.9,4.69,6.47,6.47,0,0,0,11.09-4.69V60.17a21.9,21.9,0,0,0,2.67,1.52,21.94,21.94,0,0,0,20.6-1,21.85,21.85,0,0,0,7.92-8.55,25.42,25.42,0,0,0,2.84-12A24.06,24.06,0,0,0,192.65,28.12Zm-29.83,6A10.75,10.75,0,0,1,177.67,30a10.63,10.63,0,0,1,3.9,4.13,12.28,12.28,0,0,1,1.46,6,12,12,0,0,1-1.45,6,10.78,10.78,0,0,1-3.91,4.1,11,11,0,0,1-11,0,10.48,10.48,0,0,1-3.87-4.08,12.24,12.24,0,0,1-1.42-6A12.39,12.39,0,0,1,162.82,34.11Z"/><path class="cls-1" d="M290.31,48.71A13.83,13.83,0,0,1,288,56.5a15.42,15.42,0,0,1-6.69,5.42,24.43,24.43,0,0,1-9.9,1.85A32.06,32.06,0,0,1,260.81,62a21.14,21.14,0,0,1-8.11-4.79A5.8,5.8,0,0,1,250.94,53,6.09,6.09,0,0,1,253.51,48a7.13,7.13,0,0,1,4.23-1.59,6.6,6.6,0,0,1,4.74,2.14l.09.09a9.44,9.44,0,0,0,3.36,2.1,13.56,13.56,0,0,0,5.15,1,10.54,10.54,0,0,0,5.34-1.06c1-.62,1.12-1.16,1.12-1.61,0-.3,0-.94-1.17-1.7-.87-.58-2.79-1.44-7-2.24C258.3,43,252.68,38,252.68,30.52a12,12,0,0,1,2.83-8,16.18,16.18,0,0,1,6.86-4.64,25.09,25.09,0,0,1,8.48-1.44,25.92,25.92,0,0,1,9.83,1.79,17.68,17.68,0,0,1,7.22,5.17,6.43,6.43,0,0,1,1.58,4.08,5.53,5.53,0,0,1-2.26,4.38l-.12.11a6.11,6.11,0,0,1-3.67,1.1A7.76,7.76,0,0,1,278.1,31,8.72,8.72,0,0,0,275,29a13.5,13.5,0,0,0-4.3-.58,9.75,9.75,0,0,0-4.5.88c-.83.43-.83.73-.83,1a1.46,1.46,0,0,0,.24,1,4.36,4.36,0,0,0,1.76,1,34.23,34.23,0,0,0,5.69,1.55c6,1.21,10.21,2.92,12.88,5.2A12.23,12.23,0,0,1,290.31,48.71Z"/><path class="cls-1" d="M69.84,23.17a5,5,0,0,1-.19,1.51A5.53,5.53,0,0,1,64.1,29a8.49,8.49,0,0,1-1.66-.21A27.72,27.72,0,0,0,58,28.3a11.79,11.79,0,0,0-7.2,2,5.37,5.37,0,0,0-2.29,4.63V57a6.41,6.41,0,0,1-1.67,4.62,6.33,6.33,0,0,1-4.75,1.8,6.4,6.4,0,0,1-4.62-1.68A6.29,6.29,0,0,1,35.7,57V23.17a6.05,6.05,0,0,1,6.42-6.42,6,6,0,0,1,5.55,2.83,19.46,19.46,0,0,1,2.77-1.53,19.68,19.68,0,0,1,8.21-1.75,15.77,15.77,0,0,1,7.52,1.52,7.09,7.09,0,0,1,3,2.7A5.26,5.26,0,0,1,69.84,23.17Z"/><path class="cls-1" d="M245.27,23.09V41.78a24.49,24.49,0,0,1-2.65,11.72,18.59,18.59,0,0,1-7.54,7.65l-.73.38a18.3,18.3,0,0,1-2,.85l0,0L210.94,72.47l4.92-9.54a21,21,0,0,1-3.66-1.4c-.25-.12-.49-.25-.73-.38a18.59,18.59,0,0,1-7.54-7.65,24.49,24.49,0,0,1-2.65-11.72V23.09a6.88,6.88,0,0,1,.12-1.29c0-.15.06-.31.1-.46h0a6.26,6.26,0,0,1,4.84-4.5,7.2,7.2,0,0,1,1.32-.12c.22,0,.43,0,.65,0l.55.07.47.1.46.14a6.24,6.24,0,0,1,2.4,1.5,6.07,6.07,0,0,1,1.46,2.26c0,.12.08.25.12.38s.1.41.14.61a6.73,6.73,0,0,1,.12,1.29V41.78c0,3.43.83,5.88,2.53,7.51a10.43,10.43,0,0,0,13.43,0c1.7-1.63,2.53-4.08,2.53-7.51V23.09a6.88,6.88,0,0,1,.12-1.29c0-.2.08-.41.14-.61l.12-.38a6.07,6.07,0,0,1,1.46-2.26,6.24,6.24,0,0,1,2.4-1.5l.46-.14.47-.1.55-.07c.21,0,.44,0,.66,0a7,7,0,0,1,1.31.12,6.26,6.26,0,0,1,4.84,4.5c0,.16.07.31.1.47A6.88,6.88,0,0,1,245.27,23.09Z"/></svg>